<svg id="visual" viewBox="0 0 600 150" width="600" height="150" xmlns="http://www.w3.org/2000/svg" xmlns:xlink="http://www.w3.org/1999/xlink" version="1.1"><rect x="0" y="0" width="600" height="150" fill="#ffffff"></rect><path d="M0 120L14.3 117.7C28.7 115.3 57.3 110.7 85.8 103.2C114.3 95.7 142.7 85.3 171.2 81.8C199.7 78.3 228.3 81.7 257 86.7C285.7 91.7 314.3 98.3 343 103.7C371.7 109 400.3 113 428.8 111.5C457.3 110 485.7 103 514.2 102C542.7 101 571.3 106 585.7 108.5L600 111L600 151L585.7 151C571.3 151 542.7 151 514.2 151C485.7 151 457.3 151 428.8 151C400.3 151 371.7 151 343 151C314.3 151 285.7 151 257 151C228.3 151 199.7 151 171.2 151C142.7 151 114.3 151 85.8 151C57.3 151 28.7 151 14.3 151L0 151Z" fill="#044966" stroke-linecap="round" stroke-linejoin="miter"></path></svg>